<svg xmlns="http://www.w3.org/2000/svg" width="44.444" height="27.074" viewBox="0 0 44.444 27.074">
    <path id="Path_7502" data-name="Path 7502" d="M183.969,313.466l-26.005,9.89a.737.737,0,0,1-1-.689V307.508a.737.737,0,0,0-.737-.737H140.737a.737.737,0,0,1-.737-.737v-8.966a.737.737,0,0,1,.737-.737h24.717a.737.737,0,0,1,.526,1.253l-6.659,6.786a.737.737,0,0,0,.788,1.205l23.336-8.875a.737.737,0,0,1,1,.689v15.388a.737.737,0,0,1-.475.689" transform="translate(-140 -296.331)" fill="#e0ff4b" />
</svg>
  