<svg id="logo" xmlns="http://www.w3.org/2000/svg" xmlns:xlink="http://www.w3.org/1999/xlink" width="160" height="106" viewBox="0 0 160 106">
    <defs>
        <clipPath id="clip-path">
            <rect id="Rectangle_1504" data-name="Rectangle 1504" width="160" height="39.526" fill="#e0ff4b" />
        </clipPath>
    </defs>
    <rect id="base" width="160" height="106" fill="none" />
    <g id="Group_4133" data-name="Group 4133" transform="translate(0 32.737)">
        <g id="Group_4133-2" data-name="Group 4133" clip-path="url(#clip-path)">
            <path id="Path_7500" data-name="Path 7500" d="M138.855,25.32c0-4.392,2.928-7.482,7.048-7.482,4.066,0,7.049,3.145,7.049,7.7,0,4.392-2.928,7.482-7.049,7.482-4.066,0-7.048-3.145-7.048-7.7m-7.482.108c0,7.862,5.476,14.1,12.687,14.1a9.315,9.315,0,0,0,8.079-4.121c.325-.488.759-.325.813.108l.542,3.47H160V11.874h-6.506l-.542,3.362c-.054.434-.488.6-.813.108a9.163,9.163,0,0,0-8.079-4.012c-7.049,0-12.687,5.964-12.687,14.1M101.932,11.874,110.5,38.983h11.82l8.567-27.109h-7.428l-6.4,21.9c-.163.542-.7.542-.867,0l-6.344-21.9ZM91.955,38.983h7.265V11.874H91.955ZM91.2,4.337a4.23,4.23,0,0,0,4.392,4.338A4.294,4.294,0,0,0,99.98,4.337,4.23,4.23,0,0,0,95.588,0,4.294,4.294,0,0,0,91.2,4.337M73.141,29.387c0,6.506,3.8,9.6,9.976,9.6h4.609V32.694h-3.9c-2.223,0-3.416-1.139-3.416-3.578v-10.3a.626.626,0,0,1,.651-.651h6.669V11.874H81.057a.626.626,0,0,1-.651-.651v-9.6L73.141,3.9ZM47.333,25.32c0-4.392,2.928-7.482,7.048-7.482,4.066,0,7.049,3.145,7.049,7.7,0,4.392-2.928,7.482-7.049,7.482-4.066,0-7.048-3.145-7.048-7.7m-7.482.108c0,7.862,5.476,14.1,12.687,14.1A9.315,9.315,0,0,0,60.617,35.4c.325-.488.759-.325.813.108l.542,3.47h6.506V11.874H61.972l-.542,3.362c-.054.434-.488.6-.813.108a9.163,9.163,0,0,0-8.079-4.012c-7.048,0-12.687,5.964-12.687,14.1M13.989,38.875l19.627-7.428c.542-.217.651-.542.651-1.139V18.922c0-.542-.38-.7-.922-.488L15.236,25.32c-.651.271-.976-.38-.542-.813l5.368-5.476a.513.513,0,0,0-.38-.922H.651A.626.626,0,0,0,0,18.76v6.723a.626.626,0,0,0,.651.651H12.416a.626.626,0,0,1,.651.651v11.6c0,.542.379.7.922.488" fill="#e0ff4b" />
        </g>
    </g>
</svg>
  